<?xml version="1.0" encoding="UTF-8"?>
<svg id="Capa_5" data-name="Capa 5" xmlns="http://www.w3.org/2000/svg" viewBox="0 0 210 110">
  <defs>
    <style>
      .cls-1 {
        fill: #8980ff;
      }

      .cls-2 {
        fill: #5b45f2;
      }

      .cls-3 {
        fill: #3a31b5;
      }
    </style>
  </defs>
  <g>
    <g>
      <g>
        <path class="cls-2" d="M70.54,45.16v4.07h-13.3v-15.99h13v4.06h-7.7v1.87h6.76v3.89h-6.76v2.1h8Z"/>
        <path class="cls-2" d="M72.59,33.24h5.39v11.81h7.22v4.18h-12.61v-15.99Z"/>
        <path class="cls-2" d="M86.65,33.24h5.39v15.99h-5.39v-15.99Z"/>
        <path class="cls-2" d="M105.21,40.8h4.68v6.76c-1.94,1.32-4.61,2.03-6.96,2.03-5.17,0-8.93-3.45-8.93-8.36s3.77-8.36,9.04-8.36c3.15,0,5.69,1.1,7.31,3.08l-3.45,3.04c-1.01-1.17-2.17-1.76-3.59-1.76-2.37,0-3.88,1.53-3.88,4s1.51,4,3.81,4c.66,0,1.3-.12,1.96-.39v-4.04Z"/>
        <path class="cls-2" d="M125.46,45.16v4.07h-13.3v-15.99h13v4.06h-7.7v1.87h6.76v3.89h-6.76v2.1h8Z"/>
        <path class="cls-2" d="M137.82,37.41h-4.68v-4.18h14.76v4.18h-4.68v11.81h-5.39v-11.81Z"/>
        <path class="cls-2" d="M148.89,42.03v-8.79h5.39v8.63c0,2.44.94,3.36,2.45,3.36s2.44-.92,2.44-3.36v-8.63h5.3v8.79c0,4.8-2.88,7.56-7.79,7.56s-7.79-2.76-7.79-7.56Z"/>
      </g>
      <g>
        <path class="cls-2" d="M63.07,63.85v2.96h7.2v4.39h-7.2v5.93h-5.82v-17.67h14.04v4.39h-8.22Z"/>
        <path class="cls-2" d="M72.96,68.96v-9.5h5.82v9.33c0,2.64,1.01,3.63,2.64,3.63s2.64-.99,2.64-3.63v-9.33h5.73v9.5c0,5.18-3.11,8.16-8.42,8.16s-8.41-2.98-8.41-8.16Z"/>
        <path class="cls-2" d="M95.92,63.97h-5.06v-4.51h15.94v4.51h-5.06v13.16h-5.82v-13.16Z"/>
        <path class="cls-2" d="M107.87,68.96v-9.5h5.82v9.33c0,2.64,1.01,3.63,2.64,3.63s2.64-.99,2.64-3.63v-9.33h5.73v9.5c0,5.18-3.11,8.16-8.42,8.16s-8.41-2.98-8.41-8.16Z"/>
        <path class="cls-2" d="M134.73,72.39h-1.58v4.34h-5.82v-17.27h8.32c4.81,0,7.87,2.52,7.87,6.51,0,2.49-1.18,4.37-3.25,5.43l3.63,5.33h-6.22l-2.93-4.34ZM135.27,63.95h-2.12v4.05h2.12c1.6,0,2.37-.77,2.37-2.02s-.77-2.02-2.37-2.02Z"/>
        <path class="cls-2" d="M144.98,68.09c0-5.23,4.12-9.03,9.74-9.03s9.75,3.8,9.75,9.03-4.12,9.03-9.75,9.03-9.74-3.8-9.74-9.03ZM158.6,68.09c0-2.69-1.73-4.32-3.88-4.32s-3.87,1.63-3.87,4.32,1.73,4.32,3.87,4.32,3.88-1.63,3.88-4.32Z"/>
        <path class="cls-2" d="M165.15,73.77c0-1.9,1.41-3.16,3.26-3.16s3.25,1.26,3.25,3.16-1.41,3.21-3.25,3.21-3.26-1.33-3.26-3.21Z"/>
        <path class="cls-2" d="M172.37,68.09c0-5.3,4.07-9.03,9.62-9.03,3.38,0,6.05,1.23,7.75,3.45l-3.68,3.28c-1.01-1.28-2.22-2.02-3.78-2.02-2.42,0-4.04,1.68-4.04,4.32s1.63,4.32,4.04,4.32c1.56,0,2.77-.74,3.78-2.02l3.68,3.28c-1.7,2.22-4.37,3.45-7.75,3.45-5.55,0-9.62-3.72-9.62-9.03Z"/>
        <path class="cls-2" d="M191.38,59.46h5.82v12.75h7.8v4.52h-13.62v-17.27Z"/>
      </g>
    </g>
    <rect class="cls-2" x="7.32" y="56.89" width="26.39" height="9.02" transform="translate(-37.41 32.49) rotate(-45)"/>
    <rect class="cls-3" x="4.32" y="41.1" width="26.39" height="9.02" transform="translate(-27.12 25.75) rotate(-45)"/>
    <rect class="cls-1" x="23.11" y="59.89" width="26.39" height="9.02" transform="translate(-34.9 44.54) rotate(-45)"/>
  </g>
  <g>
    <g>
      <g>
        <path class="cls-2" d="M70.54,45.16v4.07h-13.3v-15.99h13v4.06h-7.7v1.87h6.76v3.89h-6.76v2.1h8Z"/>
        <path class="cls-2" d="M72.59,33.24h5.39v11.81h7.22v4.18h-12.61v-15.99Z"/>
        <path class="cls-2" d="M86.65,33.24h5.39v15.99h-5.39v-15.99Z"/>
        <path class="cls-2" d="M105.21,40.8h4.68v6.76c-1.94,1.32-4.61,2.03-6.96,2.03-5.17,0-8.93-3.45-8.93-8.36s3.77-8.36,9.04-8.36c3.15,0,5.69,1.1,7.31,3.08l-3.45,3.04c-1.01-1.17-2.17-1.76-3.59-1.76-2.37,0-3.88,1.53-3.88,4s1.51,4,3.81,4c.66,0,1.3-.12,1.96-.39v-4.04Z"/>
        <path class="cls-2" d="M125.46,45.16v4.07h-13.3v-15.99h13v4.06h-7.7v1.87h6.76v3.89h-6.76v2.1h8Z"/>
        <path class="cls-2" d="M137.82,37.41h-4.68v-4.18h14.76v4.18h-4.68v11.81h-5.39v-11.81Z"/>
        <path class="cls-2" d="M148.89,42.03v-8.79h5.39v8.63c0,2.44.94,3.36,2.45,3.36s2.44-.92,2.44-3.36v-8.63h5.3v8.79c0,4.8-2.88,7.56-7.79,7.56s-7.79-2.76-7.79-7.56Z"/>
      </g>
      <g>
        <path class="cls-2" d="M63.07,63.85v2.96h7.2v4.39h-7.2v5.93h-5.82v-17.67h14.04v4.39h-8.22Z"/>
        <path class="cls-2" d="M72.96,68.96v-9.5h5.82v9.33c0,2.64,1.01,3.63,2.64,3.63s2.64-.99,2.64-3.63v-9.33h5.73v9.5c0,5.18-3.11,8.16-8.42,8.16s-8.41-2.98-8.41-8.16Z"/>
        <path class="cls-2" d="M95.92,63.97h-5.06v-4.51h15.94v4.51h-5.06v13.16h-5.82v-13.16Z"/>
        <path class="cls-2" d="M107.87,68.96v-9.5h5.82v9.33c0,2.64,1.01,3.63,2.64,3.63s2.64-.99,2.64-3.63v-9.33h5.73v9.5c0,5.18-3.11,8.16-8.42,8.16s-8.41-2.98-8.41-8.16Z"/>
        <path class="cls-2" d="M134.73,72.39h-1.58v4.34h-5.82v-17.27h8.32c4.81,0,7.87,2.52,7.87,6.51,0,2.49-1.18,4.37-3.25,5.43l3.63,5.33h-6.22l-2.93-4.34ZM135.27,63.95h-2.12v4.05h2.12c1.6,0,2.37-.77,2.37-2.02s-.77-2.02-2.37-2.02Z"/>
        <path class="cls-2" d="M144.98,68.09c0-5.23,4.12-9.03,9.74-9.03s9.75,3.8,9.75,9.03-4.12,9.03-9.75,9.03-9.74-3.8-9.74-9.03ZM158.6,68.09c0-2.69-1.73-4.32-3.88-4.32s-3.87,1.63-3.87,4.32,1.73,4.32,3.87,4.32,3.88-1.63,3.88-4.32Z"/>
        <path class="cls-2" d="M165.15,73.77c0-1.9,1.41-3.16,3.26-3.16s3.25,1.26,3.25,3.16-1.41,3.21-3.25,3.21-3.26-1.33-3.26-3.21Z"/>
        <path class="cls-2" d="M172.37,68.09c0-5.3,4.07-9.03,9.62-9.03,3.38,0,6.05,1.23,7.75,3.45l-3.68,3.28c-1.01-1.28-2.22-2.02-3.78-2.02-2.42,0-4.04,1.68-4.04,4.32s1.63,4.32,4.04,4.32c1.56,0,2.77-.74,3.78-2.02l3.68,3.28c-1.7,2.22-4.37,3.45-7.75,3.45-5.55,0-9.62-3.72-9.62-9.03Z"/>
        <path class="cls-2" d="M191.38,59.46h5.82v12.75h7.8v4.52h-13.62v-17.27Z"/>
      </g>
    </g>
    <rect class="cls-2" x="7.32" y="56.89" width="26.39" height="9.02" transform="translate(-37.41 32.49) rotate(-45)"/>
    <rect class="cls-3" x="4.32" y="41.1" width="26.39" height="9.02" transform="translate(-27.12 25.75) rotate(-45)"/>
    <rect class="cls-1" x="23.11" y="59.89" width="26.39" height="9.02" transform="translate(-34.9 44.54) rotate(-45)"/>
  </g>
</svg>